Coordinates
version=1
nRows=24
nColumns=24
inDegrees=yes

Units are S.I. units (second, meters, Newtons, ...)
Angles are in degrees.

endheader
time	pelvis_tilt	pelvis_list	pelvis_rotation	pelvis_tx	pelvis_ty	pelvis_tz	hip_flexion_r	hip_adduction_r	hip_rotation_r	knee_angle_r	ankle_angle_r	subtalar_angle_r	mtp_angle_r	hip_flexion_l	hip_adduction_l	hip_rotation_l	knee_angle_l	ankle_angle_l	subtalar_angle_l	mtp_angle_l	lumbar_extension	lumbar_bending	lumbar_rotation
      3.01500000	     25.56048126	     -3.40144447	     -1.96811733	     -0.60541299	      1.01877869	     -0.01911041	    -39.11410569	      3.24550611	     -1.89590571	     -7.41693160	     15.66358377	     -5.17583213	     14.05681456	     -7.23292595	     -3.51842481	    -10.55683441	     -2.16940277	      0.62137067	      2.24583456	     27.35775280	    -42.01045074	     -0.07609545	      5.80573609
      3.02000000	     25.63408759	     -3.51287960	     -2.22039855	     -0.60024152	      1.01848528	     -0.01925753	    -39.22953102	      3.11234264	     -1.67307838	     -7.92811677	     15.73036255	     -5.03950348	     13.98233827	     -7.28385992	     -3.51665483	    -10.87510291	     -2.54495231	      0.29481054	      2.06592758	     27.37238844	    -42.12450801	     -0.15980137	      6.06502639
      3.02500000	     25.74112058	     -3.60463683	     -2.47998779	     -0.59499208	      1.01825709	     -0.01936754	    -39.37555172	      2.95551763	     -1.43455793	     -8.45258563	     15.76046757	     -4.94365349	     13.94953094	     -7.36456653	     -3.50391094	    -11.20027315	     -2.99686897	     -0.05914544	      1.91408574	     27.38006116	    -42.26241719	     -0.27399631	      6.31162054
      3.03000000	     25.83012384	     -3.68640011	     -2.72814536	     -0.58968674	      1.01805480	     -0.01948996	    -39.48419585	      2.79726393	     -1.20108794	     -9.01040526	     15.75328981	     -4.87073117	     13.95979109	     -7.40795448	     -3.49380592	    -11.47945045	     -3.52840984	     -0.46075152	      1.75330981	     27.37318623	    -42.37485164	     -0.39204732	      6.53705599
      3.03500000	     25.93395530	     -3.76774962	     -2.96552666	     -0.58436116	      1.01789176	     -0.01960072	    -39.58680051	      2.64507291	     -0.95352999	     -9.60785231	     15.71916206	     -4.80947204	     14.01419904	     -7.45564037	     -3.49517783	    -11.70301706	     -4.11851492	     -0.89358664	      1.55438633	     27.35631332	    -42.50116005	     -0.51313989	      6.75893153
      3.04000000	     26.01063057	     -3.82739467	     -3.18546979	     -0.57896103	      1.01774739	     -0.01975492	    -39.64152145	      2.48448743	     -0.73001291	    -10.23949636	     15.64770086	     -4.76693418	     14.10882613	     -7.46178363	     -3.48429161	    -11.86402112	     -4.75823257	     -1.36073917	      1.32340073	     27.32628308	    -42.59047286	     -0.63907410	      6.94774007
      3.04500000	     26.09095966	     -3.87180726	     -3.38572700	     -0.57351228	      1.01763429	     -0.01990424	    -39.67914782	      2.32476820	     -0.52370024	    -10.91014396	     15.54538964	     -4.73021784	     14.24890466	     -7.46264500	     -3.46855230	    -11.95703034	     -5.43495930	     -1.83712540	      1.03750637	     27.28298496	    -42.67614030	     -0.77471918	      7.11757782
      3.05000000	     26.10826194	     -3.86598451	     -3.51642616	     -0.56800193	      1.01745800	     -0.02018636	    -39.61630227	      2.16766499	     -0.42032491	    -11.62639332	     15.16361079	     -4.90837815	     17.30979648	     -7.37008591	     -3.41065851	    -11.84189156	     -6.14752367	     -2.32031996	      0.56069461	     27.45186476	    -42.68999581	     -0.90086371	      7.16869210
      3.05500000	     26.19847902	     -3.89636301	     -3.68173761	     -0.56242628	      1.01744187	     -0.02037126	    -39.62452513	      2.01552011	     -0.22144843	    -12.36885143	     14.94618926	     -4.84938059	     17.39985010	     -7.38035449	     -3.39507260	    -11.82871362	     -6.86279732	     -2.73942285	      0.22732704	     27.37685323	    -42.77227251	     -1.03293312	      7.29853022
      3.06000000	     26.21174300	     -3.87914614	     -3.79603492	     -0.55680342	      1.01736050	     -0.02066590	    -39.50598085	      1.85843210	     -0.12363746	    -13.19010940	     14.74578627	     -4.80928786	     17.64937202	     -7.28365367	     -3.33617534	    -11.64862514	     -7.60866555	     -3.14213749	     -0.27730990	     27.25568502	    -42.76905051	     -1.16291033	      7.34612266
      3.06500000	     26.24606430	     -3.79263419	     -3.80473313	     -0.55105454	      1.01729859	     -0.02113346	    -39.40908432	      1.69285302	     -0.25017650	    -13.99448945	     14.19209257	     -4.87920128	     21.08604997	     -7.18053910	     -3.21519844	    -11.32275006	     -8.40399536	     -3.37124466	     -0.73335824	     26.43220054	    -42.77333454	     -1.28633529	      7.28545153
      3.07000000	     26.23394458	     -3.73713587	     -3.85086434	     -0.54528804	      1.01725898	     -0.02150853	    -39.21423129	      1.54661432	     -0.22008688	    -14.90092386	     13.85942074	     -4.85088747	     21.23368601	     -7.04369301	     -3.13005332	    -11.01966900	     -9.18806183	     -3.63304862	     -1.26114683	     26.28909902	    -42.72788700	     -1.40828042	      7.25425245
      3.07500000	     26.26324377	     -3.58579983	     -3.79269061	     -0.53936852	      1.01725933	     -0.02208161	    -39.05966130	      1.35561827	     -0.48211128	    -15.80250366	     13.29418478	     -4.81641101	     24.16295709	     -6.93093439	     -2.94330098	    -10.57386091	    -10.00789570	     -3.65804928	     -1.74850456	     24.96953505	    -42.70659072	     -1.54582397	      7.08961578
      3.08000000	     26.20088373	     -3.47612861	     -3.70968129	     -0.53346761	      1.01720973	     -0.02266178	    -38.74756223	      1.23273731	     -0.66823226	    -16.82001869	     12.86272822	     -4.74153665	     24.40348264	     -6.70790442	     -2.81402905	    -10.07134632	    -10.84638451	     -3.73366870	     -2.30112406	     24.75749919	    -42.59509040	     -1.62677811	      6.95073843
      3.08500000	     26.24894561	     -3.24155512	     -3.61017245	     -0.52734024	      1.01730634	     -0.02334456	    -38.55731139	      0.96972310	     -1.08248655	    -17.81513696	     12.12374712	     -4.65172022	     27.67395741	     -6.65861544	     -2.52358878	     -9.52290249	    -11.60771628	     -3.57154458	     -2.73654006	     22.94936310	    -42.57045417	     -1.80832808	      6.69985708
      3.09000000	     26.18606520	     -3.05857815	     -3.45010459	     -0.52126440	      1.01729835	     -0.02405986	    -38.19417375	      0.80595744	     -1.44475054	    -18.90326083	     11.42193247	     -4.61960230	     29.83614512	     -6.42778736	     -2.31721568	     -8.97212709	    -12.49469091	     -3.24618701	     -3.11691191	     21.25533417	    -42.44169513	     -1.90213287	      6.41751420
      3.09500000	     26.14981158	     -2.82766314	     -3.27788753	     -0.51505255	      1.01737324	     -0.02486032	    -37.83756363	      0.58154231	     -1.90930922	    -20.02938515	     10.66882587	     -4.47388607	     31.86184242	     -6.27597785	     -2.03740652	     -8.37001173	    -13.29595948	     -2.93373999	     -3.55384091	     19.73601037	    -42.32342273	     -2.02610186	      6.11938744
      3.10000000	     26.06202606	     -2.60651240	     -3.07179905	     -0.50886673	      1.01741208	     -0.02572789	    -37.36291463	      0.37482886	     -2.42012699	    -21.26793357	      9.97717840	     -4.20107872	     32.14901390	     -6.06049072	     -1.76994726	     -7.71890345	    -14.10924323	     -2.68555746	     -4.03479705	     19.52976712	    -42.15748963	     -2.11527094	      5.81506259
      3.10500000	     26.06484704	     -2.31496735	     -2.86375357	     -0.50251971	      1.01759190	     -0.02664923	    -36.99012393	      0.07327411	     -3.03161750	    -22.46234464	      8.85554255	     -4.17083618	     36.50940551	     -6.00244620	     -1.40659727	     -7.09991764	    -14.85195193	     -2.12610799	     -4.34561014	     17.05400880	    -42.06794362	     -2.26542838	      5.43681736
      3.11000000	     25.95300758	     -2.02673098	     -2.62493052	     -0.49617659	      1.01766608	     -0.02760982	    -36.42999102	     -0.21099544	     -3.65634224	    -23.79727077	      8.07108593	     -3.89758020	     36.75463077	     -5.81413513	     -1.05706454	     -6.47081199	    -15.59609835	     -1.77233440	     -4.71286070	     16.84547740	    -41.85978995	     -2.38718366	      5.04348896
      3.11500000	     25.93779529	     -1.71619001	     -2.40097162	     -0.48977414	      1.01788887	     -0.02860967	    -35.96974131	     -0.56061958	     -4.32513096	    -25.08689409	      6.83027580	     -3.87674714	     41.12871514	     -5.79331190	     -0.65925876	     -5.85703029	    -16.26434967	     -1.08498555	     -4.98141835	     14.09445466	    -41.74681217	     -2.53889996	      4.64566136
      3.12000000	     25.81043655	     -1.41762092	     -2.14521829	     -0.48342275	      1.01799072	     -0.02965495	    -35.32387427	     -0.88616831	     -4.97485284	    -26.51280664	      5.91281816	     -3.61317252	     41.41892866	     -5.64368083	     -0.28126486	     -5.22052006	    -16.93499837	     -0.61567506	     -5.34287338	     13.83913908	    -41.52274305	     -2.65433510	      4.23883410
      3.12500000	     25.77201350	     -1.08518298	     -1.93201675	     -0.47699093	      1.01826016	     -0.03065810	    -34.76622836	     -1.30087790	     -5.66846325	    -27.90167788	      4.60322144	     -3.68409851	     45.42778592	     -5.67794204	      0.14099096	     -4.71151086	    -17.47814478	      0.06786938	     -5.47769961	     11.29086062	    -41.38243389	     -2.82814201	      3.82094351
      3.13000000	     25.65757539	     -0.79451678	     -1.70953127	     -0.47066470	      1.01845278	     -0.03170168	    -34.06796151	     -1.68402103	     -6.29983762	    -29.39650411	      3.55112964	     -3.49752873	     45.79488324	     -5.63387985	      0.52160495	     -4.19390453	    -18.00343415	      0.51881142	     -5.80848869	     10.94113176	    -41.17396135	     -2.95209232	      3.43721271
